<?xml version="1.0" standalone="no"?>
<!DOCTYPE svg PUBLIC "-//W3C//DTD SVG 20010904//EN"
 "http://www.w3.org/TR/2001/REC-SVG-20010904/DTD/svg10.dtd">
<svg version="1.0" xmlns="http://www.w3.org/2000/svg"
 width="1536.000000pt" height="1024.000000pt" viewBox="0 0 1536.000000 1024.000000"
 preserveAspectRatio="xMidYMid meet">

<g transform="translate(0.000000,1024.000000) scale(0.100000,-0.100000)"
fill="#000000" stroke="none">
<path d="M9432 7192 c-425 -86 -771 -159 -770 -162 2 -4 68 -67 148 -141 80
-73 166 -153 191 -177 26 -24 54 -48 63 -55 15 -11 11 -20 -37 -90 -30 -42
-105 -138 -167 -213 -470 -566 -1067 -1054 -1432 -1169 -210 -66 -346 -36
-542 123 -133 107 -588 520 -911 827 -110 105 -215 204 -232 220 -18 15 -33
31 -33 34 0 3 56 4 124 1 l125 -5 83 -80 c122 -119 528 -494 772 -713 104 -95
250 -209 296 -232 90 -45 201 -49 312 -11 240 82 689 429 1035 799 188 201
393 444 393 466 0 3 -723 5 -1607 4 l-1608 -3 -66 -23 c-123 -44 -220 -143
-257 -262 -16 -51 -17 -147 -17 -1185 l0 -1130 23 -68 c52 -150 184 -272 338
-311 55 -14 259 -16 1881 -16 1989 0 1857 -4 1975 56 69 35 160 124 197 193
61 116 61 105 61 1109 0 501 -3 912 -6 912 -4 0 -45 -35 -93 -78 -285 -257
-697 -567 -920 -693 -23 -12 -41 -25 -40 -28 0 -3 147 -143 325 -311 179 -168
372 -350 429 -405 l104 -100 3 -112 c2 -81 0 -110 -8 -105 -6 4 -114 104 -240
223 -187 176 -625 586 -760 712 l-32 29 -96 -46 c-488 -231 -994 -283 -1410
-145 -124 41 -259 109 -336 168 -36 28 -70 50 -77 51 -13 0 -188 -167 -726
-694 -197 -193 -363 -352 -370 -354 -9 -2 -11 28 -9 115 l3 118 87 85 c48 47
215 209 372 360 447 431 510 493 510 499 -1 3 -22 22 -48 42 -41 33 -167 139
-502 424 -52 44 -166 142 -255 219 l-160 139 -6 121 c-3 66 -4 124 -2 129 3 4
26 -12 51 -36 64 -60 252 -230 397 -357 65 -58 162 -144 214 -191 190 -169
528 -463 603 -523 200 -160 387 -227 672 -242 293 -14 608 59 943 221 395 190
801 477 1186 837 l118 110 87 -84 c48 -47 116 -111 152 -143 36 -31 75 -68 88
-82 15 -17 23 -20 26 -11 3 7 25 186 51 398 26 212 69 563 96 780 27 217 49
400 49 407 0 7 -8 12 -17 12 -10 -1 -366 -72 -791 -157z"/>
</g>
</svg>
